<?xml version="1.0" encoding="UTF-8"?>
<svg xmlns="http://www.w3.org/2000/svg" viewBox="0 0 400 360">
  <defs>
    <style>
      /* Clouds floating animation */
      @keyframes float-cloud-1 {
        0%, 100% { transform: translateX(0); }
        50% { transform: translateX(8px); }
      }
      @keyframes float-cloud-2 {
        0%, 100% { transform: translateX(0); }
        50% { transform: translateX(-6px); }
      }
      @keyframes float-cloud-3 {
        0%, 100% { transform: translateX(0) translateY(0); }
        50% { transform: translateX(5px) translateY(-3px); }
      }

      /* Tombstone subtle glow */
      @keyframes glow {
        0%, 100% { filter: drop-shadow(0 0 0 rgba(255,255,255,0)); }
        50% { filter: drop-shadow(0 0 8px rgba(255,255,255,0.3)); }
      }

      /* R letter shimmer */
      @keyframes shimmer {
        0%, 100% { opacity: 1; }
        50% { opacity: 0.85; }
      }

      .cloud-1 { animation: float-cloud-1 4s ease-in-out infinite; }
      .cloud-2 { animation: float-cloud-2 5s ease-in-out infinite; animation-delay: 0.5s; }
      .cloud-3 { animation: float-cloud-3 6s ease-in-out infinite; animation-delay: 1s; }

      .tombstone { animation: glow 4s ease-in-out infinite; }
      .r-letter { animation: shimmer 3s ease-in-out infinite; }

      .tomb-base { fill: #efefef; stroke: #efefef; }
      .tomb-top { fill: #f6f8f7; }
      .tomb-side { fill: #c6c7cc; stroke: #c6c7cc; }
      .tomb-body { fill: #efefef; stroke: #efefef; }
      .tomb-body-side { fill: #c6c7cc; stroke: #c6c7cc; }
      .r-main { fill: #fff; stroke: #d7d8db; }
      .r-shadow { fill: #1d1d1b; stroke: #1d1d1b; mix-blend-mode: multiply; opacity: 0.2; }
      .cloud-white { fill: #fff; }
      .cloud-gray { fill: #e3e3e5; }
    </style>
  </defs>

  <!-- Tombstone group with glow -->
  <g class="tombstone" transform="translate(50, 0)">
    <!-- Base layers -->
    <g>
      <polygon class="tomb-base" points="296.55 305.18 51.02 314.66 50.06 280.66 296.55 276.16 296.55 305.18"/>
      <polygon class="tomb-top" points="0 264.73 50.56 284.91 297.05 275.66 296.73 275.51 250.91 256.31 0 264.73"/>
      <polygon class="tomb-side" points="50.06 314.45 50.06 285.25 .5 265.47 .5 294.89 50.06 314.45"/>
    </g>
    <polygon class="tomb-base" points="272.09 270.2 50.91 279.56 47.34 268.33 272.09 261.52 272.09 270.2"/>
    <polygon class="tomb-top" points="11.7 254.89 50.56 269.3 272.59 261.01 272.32 260.92 226.45 246.26 11.7 254.89"/>
    <polygon class="tomb-side" points="50.06 279.36 50.06 269.63 12.2 255.61 12.2 265.15 50.06 279.36"/>

    <!-- Main tombstone body -->
    <path class="tomb-body" d="M61.88,265.48l-31.69-10.91,7.91-200.38s.15-32.16,34.87-43.59c0,0,26.71-9.39,54.12-10.08,0,0,53.26-1.5,84.46,24.52,7.06,5.45,11.7,19.46,14.32,43.79.08.77.14,1.55.16,2.32l6.23,188.62-170.38,5.72Z"/>
    <path class="tomb-body-side" d="M126.37.5c-27.41.69-53.4,10.1-53.4,10.1-34.72,11.43-34.87,43.59-34.87,43.59l-7.91,200.38,31.69,10.91h.03l4.16-200.12S64.26,6.26,126.37.5Z"/>

    <!-- R Letter with shimmer -->
    <g class="r-letter">
      <path class="r-shadow" d="M194.64,215.7c6.58,7.29,16.25,15.33,24.95,10.89.8-.41,1.65.33,1.34,1.17-5.25,14.23-16.37,13.35-16.37,13.35-8.62.18-23.04-4.06-34.38-21.51-9.54-14.34-11.06-32.44-19.31-46.81-5.16-9.02-8.51-10.62-21.65-10.11l-8.05.31c-.54.02-.97.47-.97,1.01v44.24c0,24.06,2.74,31.22,22.43,32.91.58.05,1.02.58,1.02,1.23h0c0,.7-.51,1.29-1.14,1.32l-66.51,2.47c-.65.02-1.17-.54-1.17-1.26h0c0-.66.45-1.24,1.04-1.34,20.41-3.45,22.16-10.42,22.16-34.48v-114.84c0-23.92-2.71-29.83-21.87-31.73-.76-.07-1.33-.76-1.33-1.62h0c0-.93.68-1.71,1.51-1.75l64.22-2.63c18.82-.77,31.45,1.31,41.24,8.12,10.57,7.07,17.53,19.76,17.53,37.36,0,24.51-13.84,40.55-32.57,50.54-.4.21-.62.66-.52,1.1,1.27,5.59,9.98,41.68,28.4,62.07ZM132.57,152.76c13.4-.52,21.91-3.16,28.36-9.46,10.05-8.75,14.18-20.45,14.18-36.01,0-30.84-18.3-41.34-38.15-40.53-7.48.3-11.86,1.63-13.66,3.44-2.32,2.11-3.09,5.02-3.09,12.51v69.58c0,.54.43.95.97.93l11.4-.44Z"/>
      <path class="r-main" d="M193.23,215.76c6.58,7.29,16.25,15.33,24.95,10.89.8-.41,1.65.33,1.34,1.17-5.25,14.23-16.37,13.35-16.37,13.35-8.62.18-23.04-4.06-34.38-21.51-9.54-14.34-11.06-32.43-19.31-46.81-5.16-9.02-8.51-10.62-21.65-10.11l-8.05.31c-.54.02-.97.47-.97,1.01v44.24c0,24.06,2.74,31.21,22.43,32.91.58.05,1.02.58,1.02,1.23h0c0,.7-.51,1.29-1.14,1.32l-66.51,2.47c-.65.02-1.17-.54-1.17-1.26h0c0-.66.45-1.24,1.04-1.34,20.41-3.45,22.16-10.42,22.16-34.48v-114.84c0-23.92-2.71-29.83-21.87-31.73-.76-.07-1.33-.76-1.33-1.62h0c0-.93.68-1.71,1.51-1.75l64.22-2.63c18.82-.77,31.45,1.31,41.24,8.11,10.57,7.07,17.53,19.76,17.53,37.35,0,24.51-13.84,40.54-32.57,50.54-.4.21-.62.66-.52,1.1,1.27,5.59,9.98,41.68,28.4,62.07ZM131.15,152.81c13.4-.52,21.91-3.16,28.36-9.46,10.05-8.75,14.18-20.44,14.18-36.01,0-30.84-18.3-41.34-38.15-40.53-7.48.3-11.86,1.63-13.66,3.44-2.32,2.11-3.09,5.02-3.09,12.51v69.58c0,.54.43.95.97.93l11.4-.44Z"/>
    </g>
  </g>

  <!-- Clouds group -->
  <g transform="translate(20, 315)">
    <!-- Cloud group 1 - left -->
    <g class="cloud-1">
      <path class="cloud-white" d="M0,42.74c3.45-4.85,11.82-6.83,18.02-4.34.37-2.19,3.39-3.83,6.03-3.27-2.15-2.13-3.04-5.05-2.36-7.74.69-2.69,2.93-5.09,5.95-6.36-5-4.97-4.43-13.02,1.25-17.49,5.68-4.47,15.63-4.73,21.65-.56,3.17-2.38,8.44-2.68,11.98-.67,3.54,2.01,5,6.11,3.3,9.34,2.9,0,5.76,1.21,7.43,3.13,1.67,1.92,2.09,4.5,1.11,6.71,5.09-.94,10.92.87,14.77,3.54,4.45,3.08,5.86,12.61,4.05,16.58L0,42.74Z"/>
      <path class="cloud-gray" d="M0,42.74c2.33-1.8,6.25-3.09,9.46-3.33,3.21-.24,6.52.42,9.22,1.84,2.53-2.75,7.55-3.78,11.39-2.34-.85-.65-1.08-1.9-.79-2.82.29-.92,1.24-1.68,2.37-1.91-1.96-1.83-3.62-4.03-3.74-6.44s1.75-5.01,4.68-5.49c.08-3.73,2.29-7.44,6.02-9.65,3.72-2.21,8.91-2.78,13.13-1.27,4.22,1.51,7.23,5.12,7.12,8.85,1.78-1.07,4.36-1.18,6.26-.26,1.91.91,3.03,2.79,2.72,4.57,4.22-1.87,10.28-.94,13.79,1.72,3.51,2.67,4.58,7.21,2.53,10.73,1.85-.48,4.11-.07,5.78.73,1.67.81,2.83,2.36,3.18,3.91L0,42.74Z"/>
    </g>

    <!-- Cloud group 2 - center -->
    <g class="cloud-2" transform="translate(140, -5)">
      <path class="cloud-gray" d="M119.61,40.09h-118.79c4-5.42,10.87-7.37,17.29-8.18,6.43-.81,12.96-.09,18.04,4.18,1.99-1.48,4.95-1.21,6.67.61.44-2.99,2.38-5.67,4.97-6.9,2.59-1.23,5.76-.95,8.14.71,3.9-8.07,13.44-11.92,21.81-10.24,8.37,1.68,15.43,8.05,19.97,15.73,6.93-3.79,16.14-1.5,21.89,4.1Z"/>
    </g>

    <!-- Cloud group 3 - right -->
    <g class="cloud-3" transform="translate(250, 0)">
      <path class="cloud-white" d="M108.21,38.43h-83.01c4.15-6.56,13.43-9.02,20.38-5.56,3.12-7.9,11.36-13.49,19.85-13.48,8.49.01,16.71,5.63,19.81,13.54,7.25-4.73,17.41-1.14,22.97,5.5Z"/>
    </g>
  </g>
</svg>
