<?xml version="1.0" encoding="UTF-8"?>
<svg xmlns="http://www.w3.org/2000/svg" xmlns:xlink="http://www.w3.org/1999/xlink" viewBox="0 0 344.88 231.12" width="344.88" height="231.12">
  <!-- 91mm x 61mm at 96dpi = 344.88 x 231.12 — includes 3mm bleed -->
  <defs>
    <linearGradient id="bg" x1="0" y1="0" x2="344" y2="231" gradientUnits="userSpaceOnUse">
      <stop offset="0" stop-color="#1a3c34"/>
      <stop offset="0.4" stop-color="#2d5a4e"/>
      <stop offset="1" stop-color="#1a3c34"/>
    </linearGradient>
    <linearGradient id="gold" x1="0" y1="0" x2="1" y2="0">
      <stop offset="0" stop-color="transparent"/>
      <stop offset="0.3" stop-color="#C4A962"/>
      <stop offset="0.7" stop-color="#D9C48A"/>
      <stop offset="1" stop-color="transparent"/>
    </linearGradient>
    <linearGradient id="rg1" x1="240.25" y1="361.44" x2="104.74" y2="225.94" gradientUnits="userSpaceOnUse"><stop offset="0" stop-color="#c8c0b0"/><stop offset="1" stop-color="#e8e4dc"/></linearGradient>
    <linearGradient id="rg2" x1="262.48" y1="335.64" x2="34.96" y2="204.28" gradientUnits="userSpaceOnUse"><stop offset="0" stop-color="#c8c0b0"/><stop offset="1" stop-color="#e8e4dc"/></linearGradient>
    <linearGradient id="rg3" x1="216.82" y1="325.43" x2="103.51" y2="212.12" gradientUnits="userSpaceOnUse"><stop offset="0" stop-color="#c8c0b0"/><stop offset="1" stop-color="#e8e4dc"/></linearGradient>
    <linearGradient id="rg4" x1="241.49" y1="314.96" x2="43.18" y2="200.46" gradientUnits="userSpaceOnUse"><stop offset="0" stop-color="#c8c0b0"/><stop offset="1" stop-color="#e8e4dc"/></linearGradient>
    <linearGradient id="rg5" x1="131.41" y1=".26" x2="131.41" y2="265.24" gradientUnits="userSpaceOnUse"><stop offset="0" stop-color="#d8d4cc"/><stop offset="1" stop-color="#f0ece6"/></linearGradient>
    <linearGradient id="rg6" x1="189.79" y1="69.62" x2="84.59" y2="251.83" gradientUnits="userSpaceOnUse"><stop offset="0" stop-color="#f5f0e8"/><stop offset=".38" stop-color="#e0dbd2"/><stop offset=".64" stop-color="#c8c4bc"/><stop offset="1" stop-color="#a8a498"/></linearGradient>
  </defs>

  <!-- Background -->
  <rect width="344.88" height="231.12" fill="url(#bg)"/>

  <!-- Safe zone: 3mm from trim = ~11.34px from each edge -->
  <!-- Trim line at 11.34px from edges -->

  <!-- Logo centered -->
  <g transform="translate(127, 28) scale(0.3)">
    <g><polygon fill="url(#rg1)" points="296.74 304.94 51.22 314.42 50.25 280.42 296.74 275.93"/><polygon fill="url(#rg2)" points=".19 264.49 50.75 284.67 297.24 275.42 296.92 275.28 251.1 256.08"/><polygon fill="#8a8a96" points="50.25 314.22 50.25 285.01 .69 265.23 .69 294.65"/></g>
    <polygon fill="url(#rg3)" points="272.28 269.96 51.1 279.32 47.53 268.09 272.28 261.29"/><polygon fill="url(#rg4)" points="11.89 254.65 50.75 269.06 272.78 260.77 272.51 260.69 226.64 246.02"/><polygon fill="#8a8a96" points="50.25 279.12 50.25 269.4 12.39 255.37 12.39 264.91"/>
    <path fill="url(#rg5)" d="M62.07,265.24l-31.69-10.91,7.91-200.38s.15-32.16,34.87-43.59c0,0,26.71-9.39,54.12-10.08,0,0,53.26-1.5,84.46,24.52,7.06,5.45,11.7,19.46,14.32,43.79.08.77.14,1.55.16,2.32l6.23,188.62-170.38,5.72Z"/>
    <path fill="#8a8a96" d="M126.56.26c-27.41.69-53.4,10.1-53.4,10.1-34.72,11.43-34.87,43.59-34.87,43.59l-7.91,200.38,31.69,10.91h.03l4.16-200.12S64.45,6.02,126.56.26Z"/>
    <g style="isolation:isolate"><g style="mix-blend-mode:multiply;opacity:.3"><path fill="#666" d="M194.84,215.47c6.58,7.29,16.25,15.33,24.95,10.89.8-.41,1.65.33,1.34,1.17-5.25,14.23-16.37,13.35-16.37,13.35-8.62.18-23.04-4.06-34.38-21.51-9.54-14.34-11.06-32.44-19.31-46.81-5.16-9.02-8.51-10.62-21.65-10.11l-8.05.31c-.54.02-.97.47-.97,1.01v44.24c0,24.06,2.74,31.22,22.43,32.91.58.05,1.02.58,1.02,1.23h0c0,.7-.51,1.29-1.14,1.32l-66.51,2.47c-.65.02-1.17-.54-1.17-1.26h0c0-.66.45-1.24,1.04-1.34,20.41-3.45,22.16-10.42,22.16-34.48v-114.84c0-23.92-2.71-29.83-21.87-31.73-.76-.07-1.33-.76-1.33-1.62h0c0-.93.68-1.71,1.51-1.75l64.22-2.63c18.82-.77,31.45,1.31,41.24,8.12,10.57,7.07,17.53,19.76,17.53,37.36,0,24.51-13.84,40.55-32.57,50.54-.4.21-.62.66-.52,1.1,1.27,5.59,9.98,41.68,28.4,62.07ZM132.77,152.52c13.4-.52,21.91-3.16,28.36-9.46,10.05-8.75,14.18-20.45,14.18-36.01,0-30.84-18.3-41.34-38.15-40.53-7.48.3-11.86,1.63-13.66,3.44-2.32,2.11-3.09,5.02-3.09,12.51v69.58c0,.54.43.95.97.93l11.4-.44Z"/></g>
    <path fill="url(#rg6)" d="M193.42,215.52c6.58,7.29,16.25,15.33,24.95,10.89.8-.41,1.65.33,1.34,1.17-5.25,14.23-16.37,13.35-16.37,13.35-8.62.18-23.04-4.06-34.38-21.51-9.54-14.34-11.06-32.43-19.31-46.81-5.16-9.02-8.51-10.62-21.65-10.11l-8.05.31c-.54.02-.97.47-.97,1.01v44.24c0,24.06,2.74,31.21,22.43,32.91.58.05,1.02.58,1.02,1.23h0c0,.7-.51,1.29-1.14,1.32l-66.51,2.47c-.65.02-1.17-.54-1.17-1.26h0c0-.66.45-1.24,1.04-1.34,20.41-3.45,22.16-10.42,22.16-34.48v-114.84c0-23.92-2.71-29.83-21.87-31.73-.76-.07-1.33-.76-1.33-1.62h0c0-.93.68-1.71,1.51-1.75l64.22-2.63c18.82-.77,31.45,1.31,41.24,8.11,10.57,7.07,17.53,19.76,17.53,37.35,0,24.51-13.84,40.54-32.57,50.54-.4.21-.62.66-.52,1.1,1.27,5.59,9.98,41.68,28.4,62.07ZM131.35,152.58c13.4-.52,21.91-3.16,28.36-9.46,10.05-8.75,14.18-20.44,14.18-36.01,0-30.84-18.3-41.34-38.15-40.53-7.48.3-11.86,1.63-13.66,3.44-2.32,2.11-3.09,5.02-3.09,12.51v69.58c0,.54.43.95.97.93l11.4-.44Z"/></g>
  </g>

  <!-- Brand name -->
  <text x="172.44" y="148" text-anchor="middle" font-family="'Libre Baskerville', Georgia, serif" font-size="20" font-weight="700" fill="#F8F9F6" letter-spacing="1.2">Renovacieux</text>

  <!-- Gold line -->
  <rect x="119" y="157" width="107" height="1" fill="url(#gold)"/>

  <!-- Tagline -->
  <text x="172.44" y="174" text-anchor="middle" font-family="'Source Sans 3', sans-serif" font-size="7.5" fill="rgba(248,249,246,0.65)" letter-spacing="2.5" text-transform="uppercase">NETTOYAGE &amp; RÉNOVATION DE SÉPULTURES</text>

  <!-- Zones -->
  <text x="172.44" y="193" text-anchor="middle" font-family="'Source Sans 3', sans-serif" font-size="7" fill="rgba(248,249,246,0.4)" letter-spacing="1.5">PARIS · ÎLE-DE-FRANCE · CÔTE D'AZUR</text>

  <!-- Trim marks (for print) -->
  <line x1="11.34" y1="0" x2="11.34" y2="6" stroke="#000" stroke-width="0.25"/>
  <line x1="0" y1="11.34" x2="6" y2="11.34" stroke="#000" stroke-width="0.25"/>
  <line x1="333.54" y1="0" x2="333.54" y2="6" stroke="#000" stroke-width="0.25"/>
  <line x1="338.88" y1="11.34" x2="344.88" y2="11.34" stroke="#000" stroke-width="0.25"/>
  <line x1="11.34" y1="225.12" x2="11.34" y2="231.12" stroke="#000" stroke-width="0.25"/>
  <line x1="0" y1="219.78" x2="6" y2="219.78" stroke="#000" stroke-width="0.25"/>
  <line x1="333.54" y1="225.12" x2="333.54" y2="231.12" stroke="#000" stroke-width="0.25"/>
  <line x1="338.88" y1="219.78" x2="344.88" y2="219.78" stroke="#000" stroke-width="0.25"/>
</svg>
