<?xml version="1.0" encoding="UTF-8"?>
<svg xmlns="http://www.w3.org/2000/svg" viewBox="0 0 344.88 231.12" width="344.88" height="231.12">
  <!-- 91mm x 61mm — includes 3mm bleed -->
  <defs>
    <linearGradient id="goldbar" x1="0" y1="0" x2="1" y2="0">
      <stop offset="0" stop-color="#C4A962"/>
      <stop offset="0.5" stop-color="#D9C48A"/>
      <stop offset="1" stop-color="#C4A962"/>
    </linearGradient>
  </defs>

  <!-- Background -->
  <rect width="344.88" height="231.12" fill="#F8F9F6"/>

  <!-- Gold accent bar top -->
  <rect x="0" y="0" width="344.88" height="3" fill="url(#goldbar)"/>

  <!-- Dimitri -->
  <text x="30" y="42" font-family="'Libre Baskerville', Georgia, serif" font-size="15" fill="#1a3c34">Dimitri</text>
  <text x="30" y="56" font-family="'Source Sans 3', sans-serif" font-size="8" fill="#7D8B74" letter-spacing="1.2">FONDATEUR</text>

  <!-- Divider -->
  <line x1="30" y1="68" x2="314" y2="68" stroke="#ECEEE8" stroke-width="0.75"/>

  <!-- Phone icon circle -->
  <circle cx="42" cy="92" r="9" fill="#1a3c34"/>
  <path d="M38.5,89.5a8,8,0,0,0,3.5,3.5l1.2-1.2a.5.5,0,0,1,.5-.12,6,6,0,0,0,1.8.3.5.5,0,0,1,.5.5v1.8a.5.5,0,0,1-.5.5,9,9,0,0,1-9-9,.5.5,0,0,1,.5-.5h1.8a.5.5,0,0,1,.5.5,6,6,0,0,0,.3,1.8.5.5,0,0,1-.12.5l-1.2,1.2Z" fill="white" transform="translate(0,0.5)"/>
  <text x="58" y="96" font-family="'Source Sans 3', sans-serif" font-size="14" font-weight="600" fill="#1a3c34">07 57 81 06 02</text>

  <!-- Email icon circle -->
  <circle cx="42" cy="120" r="9" fill="#1a3c34"/>
  <rect x="36" y="116" width="12" height="8" rx="1" fill="none" stroke="white" stroke-width="1"/>
  <polyline points="36,116.5 42,121 48,116.5" fill="none" stroke="white" stroke-width="1"/>
  <text x="58" y="124" font-family="'Source Sans 3', sans-serif" font-size="11" font-weight="500" fill="#2C3029">dimitri@renovacieux.com</text>

  <!-- Web icon circle -->
  <circle cx="42" cy="148" r="9" fill="#1a3c34"/>
  <circle cx="42" cy="148" r="5.5" fill="none" stroke="white" stroke-width="0.9"/>
  <ellipse cx="42" cy="148" rx="3" ry="5.5" fill="none" stroke="white" stroke-width="0.7"/>
  <line x1="36.5" y1="148" x2="47.5" y2="148" stroke="white" stroke-width="0.7"/>
  <text x="58" y="152" font-family="'Source Sans 3', sans-serif" font-size="14" font-weight="600" fill="#1a3c34">renovacieux.com</text>

  <!-- Zones bottom -->
  <text x="172.44" y="186" text-anchor="middle" font-family="'Source Sans 3', sans-serif" font-size="7.5" fill="#8A9184" letter-spacing="1.5">PARIS · ÎLE-DE-FRANCE · CÔTE D'AZUR</text>

  <!-- Tagline bottom right -->
  <text x="314" y="210" text-anchor="end" font-family="'Source Sans 3', sans-serif" font-size="6.5" fill="#BFBFBF" letter-spacing="0.5">Nettoyage &amp; rénovation de sépultures</text>

  <!-- Trim marks -->
  <line x1="11.34" y1="0" x2="11.34" y2="6" stroke="#000" stroke-width="0.25"/>
  <line x1="0" y1="11.34" x2="6" y2="11.34" stroke="#000" stroke-width="0.25"/>
  <line x1="333.54" y1="0" x2="333.54" y2="6" stroke="#000" stroke-width="0.25"/>
  <line x1="338.88" y1="11.34" x2="344.88" y2="11.34" stroke="#000" stroke-width="0.25"/>
  <line x1="11.34" y1="225.12" x2="11.34" y2="231.12" stroke="#000" stroke-width="0.25"/>
  <line x1="0" y1="219.78" x2="6" y2="219.78" stroke="#000" stroke-width="0.25"/>
  <line x1="333.54" y1="225.12" x2="333.54" y2="231.12" stroke="#000" stroke-width="0.25"/>
  <line x1="338.88" y1="219.78" x2="344.88" y2="219.78" stroke="#000" stroke-width="0.25"/>
</svg>
